<svg xmlns="http://www.w3.org/2000/svg" xmlns:xlink="http://www.w3.org/1999/xlink" width="1920" zoomAndPan="magnify" viewBox="0 0 1440 809.999993" height="1080" preserveAspectRatio="xMidYMid meet" version="1.0"><defs><clipPath id="f5d9ca01a4"><path d="M 472.128906 364.347656 L 617 364.347656 L 617 445.621094 L 472.128906 445.621094 Z M 472.128906 364.347656 " clip-rule="nonzero"/></clipPath><clipPath id="5b46d243a0"><path d="M 494.582031 364.347656 C 490.480469 364.347656 486.839844 367.535156 486.839844 372.089844 L 486.839844 374.367188 C 486.839844 378.464844 490.480469 382.109375 494.582031 382.109375 C 498.679688 382.109375 502.324219 378.464844 502.324219 374.367188 L 502.324219 372.089844 C 502.324219 367.535156 498.679688 364.347656 494.582031 364.347656 Z M 486.839844 398.957031 C 486.839844 398.957031 486.382812 398.5 486.382812 398.957031 L 480.917969 411.707031 C 480.007812 413.53125 478.1875 414.894531 475.910156 414.894531 L 473.632812 414.894531 C 473.175781 414.894531 472.722656 414.894531 472.722656 414.441406 C 472.265625 413.984375 472.265625 413.53125 472.722656 413.074219 L 479.554688 397.136719 L 481.828125 390.761719 C 483.652344 387.117188 487.292969 384.386719 491.394531 384.386719 L 497.769531 384.386719 C 501.867188 384.386719 505.511719 387.117188 507.332031 390.761719 L 509.609375 397.136719 L 516.441406 413.074219 C 516.894531 413.53125 516.894531 413.984375 516.441406 414.441406 C 516.441406 414.894531 515.984375 414.894531 515.527344 414.894531 L 513.25 414.894531 C 510.976562 414.894531 509.152344 413.53125 508.242188 411.707031 L 502.777344 398.957031 C 502.777344 398.5 502.324219 398.957031 502.324219 398.957031 L 504.597656 414.894531 L 507.332031 444.039062 C 507.332031 444.496094 506.875 444.496094 506.875 444.953125 C 506.421875 444.953125 506.421875 445.40625 505.964844 445.40625 L 504.144531 445.40625 C 501.410156 445.40625 499.132812 443.585938 499.132812 440.851562 L 495.035156 416.261719 C 494.582031 416.261719 494.582031 416.261719 494.125 416.261719 L 490.027344 440.851562 C 490.027344 443.585938 487.75 445.40625 485.019531 445.40625 L 483.195312 445.40625 C 482.742188 445.40625 482.742188 444.953125 482.285156 444.953125 C 482.285156 444.496094 481.828125 444.496094 481.828125 444.039062 L 484.5625 414.894531 Z M 544.671875 364.347656 C 540.574219 364.347656 536.933594 367.535156 536.933594 372.089844 L 536.933594 374.367188 C 536.933594 378.464844 540.574219 382.109375 544.671875 382.109375 C 548.773438 382.109375 552.414062 378.464844 552.414062 374.367188 L 552.414062 372.089844 C 552.414062 367.535156 548.773438 364.347656 544.671875 364.347656 Z M 536.933594 398.957031 C 536.933594 398.957031 536.476562 398.5 536.476562 398.957031 L 531.011719 411.707031 C 530.101562 413.53125 528.28125 414.894531 526.003906 414.894531 L 523.726562 414.894531 C 523.269531 414.894531 522.816406 414.894531 522.816406 414.441406 C 522.359375 413.984375 522.359375 413.53125 522.816406 413.074219 L 529.644531 397.136719 L 531.921875 390.761719 C 533.746094 387.117188 537.386719 384.386719 541.484375 384.386719 L 547.863281 384.386719 C 551.960938 384.386719 555.601562 387.117188 557.425781 390.761719 L 559.703125 397.136719 L 566.53125 413.074219 C 566.988281 413.53125 566.988281 413.984375 566.53125 414.441406 C 566.53125 414.894531 566.078125 414.894531 565.621094 414.894531 L 563.34375 414.894531 C 561.066406 414.894531 559.246094 413.53125 558.335938 411.707031 L 552.871094 398.957031 C 552.871094 398.5 552.414062 398.957031 552.414062 398.957031 L 554.691406 414.894531 L 557.425781 444.039062 C 557.425781 444.496094 556.96875 444.496094 556.96875 444.953125 C 556.515625 444.953125 556.515625 445.40625 556.058594 445.40625 L 554.238281 445.40625 C 551.503906 445.40625 549.226562 443.585938 549.226562 440.851562 L 545.128906 416.261719 C 544.671875 416.261719 544.671875 416.261719 544.21875 416.261719 L 540.121094 440.851562 C 540.121094 443.585938 537.84375 445.40625 535.109375 445.40625 L 533.289062 445.40625 C 532.832031 445.40625 532.832031 444.953125 532.378906 444.953125 C 532.378906 444.496094 531.921875 444.496094 531.921875 444.039062 L 534.65625 414.894531 Z M 594.765625 364.347656 C 590.667969 364.347656 587.023438 367.535156 587.023438 372.089844 L 587.023438 374.367188 C 587.023438 378.464844 590.667969 382.109375 594.765625 382.109375 C 598.863281 382.109375 602.507812 378.464844 602.507812 374.367188 L 602.507812 372.089844 C 602.507812 367.535156 598.863281 364.347656 594.765625 364.347656 Z M 587.023438 398.957031 C 587.023438 398.957031 586.570312 398.5 586.570312 398.957031 L 581.105469 411.707031 C 580.195312 413.53125 578.371094 414.894531 576.09375 414.894531 L 573.820312 414.894531 C 573.363281 414.894531 572.90625 414.894531 572.90625 414.441406 C 572.453125 413.984375 572.453125 413.53125 572.90625 413.074219 L 579.738281 397.136719 L 582.015625 390.761719 C 583.835938 387.117188 587.480469 384.386719 591.578125 384.386719 L 597.953125 384.386719 C 602.054688 384.386719 605.695312 387.117188 607.515625 390.761719 L 609.792969 397.136719 L 616.625 413.074219 C 617.082031 413.53125 617.082031 413.984375 616.625 414.441406 C 616.625 414.894531 616.167969 414.894531 615.714844 414.894531 L 613.4375 414.894531 C 611.160156 414.894531 609.339844 413.53125 608.429688 411.707031 L 602.964844 398.957031 C 602.964844 398.5 602.507812 398.957031 602.507812 398.957031 L 604.785156 414.894531 L 607.515625 444.039062 C 607.515625 444.496094 607.0625 444.496094 607.0625 444.953125 C 606.605469 444.953125 606.605469 445.40625 606.152344 445.40625 L 604.328125 445.40625 C 601.597656 445.40625 599.320312 443.585938 599.320312 440.851562 L 595.222656 416.261719 C 594.765625 416.261719 594.765625 416.261719 594.3125 416.261719 L 590.210938 440.851562 C 590.210938 443.585938 587.9375 445.40625 585.203125 445.40625 L 583.382812 445.40625 C 582.925781 445.40625 582.925781 444.953125 582.472656 444.953125 C 582.472656 444.496094 582.015625 444.496094 582.015625 444.039062 L 584.746094 414.894531 Z M 587.023438 398.957031 " clip-rule="nonzero"/></clipPath><clipPath id="971281f669"><path d="M 622.34375 364.347656 L 967.996094 364.347656 L 967.996094 445.621094 L 622.34375 445.621094 Z M 622.34375 364.347656 " clip-rule="nonzero"/></clipPath><clipPath id="e84e04a15b"><path d="M 644.859375 364.347656 C 640.761719 364.347656 637.117188 367.535156 637.117188 372.089844 L 637.117188 374.367188 C 637.117188 378.464844 640.761719 382.109375 644.859375 382.109375 C 648.957031 382.109375 652.601562 378.464844 652.601562 374.367188 L 652.601562 372.089844 C 652.601562 367.535156 648.957031 364.347656 644.859375 364.347656 Z M 637.117188 398.957031 C 637.117188 398.957031 636.664062 398.5 636.664062 398.957031 L 631.199219 411.707031 C 630.285156 413.53125 628.464844 414.894531 626.1875 414.894531 L 623.910156 414.894531 C 623.457031 414.894531 623 414.894531 623 414.441406 C 622.546875 413.984375 622.546875 413.53125 623 413.074219 L 629.832031 397.136719 L 632.109375 390.761719 C 633.929688 387.117188 637.574219 384.386719 641.671875 384.386719 L 648.046875 384.386719 C 652.144531 384.386719 655.789062 387.117188 657.609375 390.761719 L 659.886719 397.136719 L 666.71875 413.074219 C 667.171875 413.53125 667.171875 413.984375 666.71875 414.441406 C 666.71875 414.894531 666.261719 414.894531 665.808594 414.894531 L 663.53125 414.894531 C 661.253906 414.894531 659.433594 413.53125 658.519531 411.707031 L 653.054688 398.957031 C 653.054688 398.5 652.601562 398.957031 652.601562 398.957031 L 654.878906 414.894531 L 657.609375 444.039062 C 657.609375 444.496094 657.15625 444.496094 657.15625 444.953125 C 656.699219 444.953125 656.699219 445.40625 656.242188 445.40625 L 654.421875 445.40625 C 651.691406 445.40625 649.414062 443.585938 649.414062 440.851562 L 645.316406 416.261719 C 644.859375 416.261719 644.859375 416.261719 644.402344 416.261719 L 640.304688 440.851562 C 640.304688 443.585938 638.027344 445.40625 635.296875 445.40625 L 633.476562 445.40625 C 633.019531 445.40625 633.019531 444.953125 632.5625 444.953125 C 632.5625 444.496094 632.109375 444.496094 632.109375 444.039062 L 634.839844 414.894531 Z M 694.953125 364.347656 C 690.855469 364.347656 687.210938 367.535156 687.210938 372.089844 L 687.210938 374.367188 C 687.210938 378.464844 690.855469 382.109375 694.953125 382.109375 C 699.050781 382.109375 702.695312 378.464844 702.695312 374.367188 L 702.695312 372.089844 C 702.695312 367.535156 699.050781 364.347656 694.953125 364.347656 Z M 687.210938 398.957031 C 687.210938 398.957031 686.753906 398.5 686.753906 398.957031 L 681.289062 411.707031 C 680.378906 413.53125 678.558594 414.894531 676.28125 414.894531 L 674.003906 414.894531 C 673.550781 414.894531 673.09375 414.894531 673.09375 414.441406 C 672.636719 413.984375 672.636719 413.53125 673.09375 413.074219 L 679.925781 397.136719 L 682.203125 390.761719 C 684.023438 387.117188 687.664062 384.386719 691.765625 384.386719 L 698.140625 384.386719 C 702.238281 384.386719 705.882812 387.117188 707.703125 390.761719 L 709.980469 397.136719 L 716.8125 413.074219 C 717.265625 413.53125 717.265625 413.984375 716.8125 414.441406 C 716.8125 414.894531 716.355469 414.894531 715.898438 414.894531 L 713.625 414.894531 C 711.347656 414.894531 709.523438 413.53125 708.613281 411.707031 L 703.148438 398.957031 C 703.148438 398.5 702.695312 398.957031 702.695312 398.957031 L 704.972656 414.894531 L 707.703125 444.039062 C 707.703125 444.496094 707.246094 444.496094 707.246094 444.953125 C 706.792969 444.953125 706.792969 445.40625 706.335938 445.40625 L 704.515625 445.40625 C 701.78125 445.40625 699.507812 443.585938 699.507812 440.851562 L 695.40625 416.261719 C 694.953125 416.261719 694.953125 416.261719 694.496094 416.261719 L 690.398438 440.851562 C 690.398438 443.585938 688.121094 445.40625 685.390625 445.40625 L 683.566406 445.40625 C 683.113281 445.40625 683.113281 444.953125 682.65625 444.953125 C 682.65625 444.496094 682.203125 444.496094 682.203125 444.039062 L 684.933594 414.894531 Z M 745.046875 364.347656 C 740.945312 364.347656 737.304688 367.535156 737.304688 372.089844 L 737.304688 374.367188 C 737.304688 378.464844 740.945312 382.109375 745.046875 382.109375 C 749.144531 382.109375 752.785156 378.464844 752.785156 374.367188 L 752.785156 372.089844 C 752.785156 367.535156 749.144531 364.347656 745.046875 364.347656 Z M 737.304688 398.957031 C 737.304688 398.957031 736.847656 398.5 736.847656 398.957031 L 731.382812 411.707031 C 730.472656 413.53125 728.652344 414.894531 726.375 414.894531 L 724.097656 414.894531 C 723.640625 414.894531 723.1875 414.894531 723.1875 414.441406 C 722.730469 413.984375 722.730469 413.53125 723.1875 413.074219 L 730.015625 397.136719 L 732.292969 390.761719 C 734.117188 387.117188 737.757812 384.386719 741.855469 384.386719 L 748.234375 384.386719 C 752.332031 384.386719 755.972656 387.117188 757.796875 390.761719 L 760.074219 397.136719 L 766.902344 413.074219 C 767.359375 413.53125 767.359375 413.984375 766.902344 414.441406 C 766.902344 414.894531 766.449219 414.894531 765.992188 414.894531 L 763.714844 414.894531 C 761.4375 414.894531 759.617188 413.53125 758.707031 411.707031 L 753.242188 398.957031 C 753.242188 398.5 752.785156 398.957031 752.785156 398.957031 L 755.0625 414.894531 L 757.796875 444.039062 C 757.796875 444.496094 757.339844 444.496094 757.339844 444.953125 C 756.886719 444.953125 756.886719 445.40625 756.429688 445.40625 L 754.609375 445.40625 C 751.875 445.40625 749.597656 443.585938 749.597656 440.851562 L 745.5 416.261719 C 745.046875 416.261719 745.046875 416.261719 744.589844 416.261719 L 740.492188 440.851562 C 740.492188 443.585938 738.214844 445.40625 735.480469 445.40625 L 733.660156 445.40625 C 733.203125 445.40625 733.203125 444.953125 732.75 444.953125 C 732.75 444.496094 732.292969 444.496094 732.292969 444.039062 L 735.027344 414.894531 Z M 795.136719 364.347656 C 791.039062 364.347656 787.394531 367.535156 787.394531 372.089844 L 787.394531 374.367188 C 787.394531 378.464844 791.039062 382.109375 795.136719 382.109375 C 799.238281 382.109375 802.878906 378.464844 802.878906 374.367188 L 802.878906 372.089844 C 802.878906 367.535156 799.238281 364.347656 795.136719 364.347656 Z M 787.394531 398.957031 C 787.394531 398.957031 786.941406 398.5 786.941406 398.957031 L 781.476562 411.707031 C 780.566406 413.53125 778.742188 414.894531 776.46875 414.894531 L 774.191406 414.894531 C 773.734375 414.894531 773.277344 414.894531 773.277344 414.441406 C 772.824219 413.984375 772.824219 413.53125 773.277344 413.074219 L 780.109375 397.136719 L 782.386719 390.761719 C 784.207031 387.117188 787.851562 384.386719 791.949219 384.386719 L 798.324219 384.386719 C 802.425781 384.386719 806.066406 387.117188 807.890625 390.761719 L 810.164062 397.136719 L 816.996094 413.074219 C 817.453125 413.53125 817.453125 413.984375 816.996094 414.441406 C 816.996094 414.894531 816.542969 414.894531 816.085938 414.894531 L 813.808594 414.894531 C 811.53125 414.894531 809.710938 413.53125 808.800781 411.707031 L 803.335938 398.957031 C 803.335938 398.5 802.878906 398.957031 802.878906 398.957031 L 805.15625 414.894531 L 807.890625 444.039062 C 807.890625 444.496094 807.433594 444.496094 807.433594 444.953125 C 806.976562 444.953125 806.976562 445.40625 806.523438 445.40625 L 804.699219 445.40625 C 801.96875 445.40625 799.691406 443.585938 799.691406 440.851562 L 795.59375 416.261719 C 795.136719 416.261719 795.136719 416.261719 794.683594 416.261719 L 790.585938 440.851562 C 790.585938 443.585938 788.308594 445.40625 785.574219 445.40625 L 783.753906 445.40625 C 783.296875 445.40625 783.296875 444.953125 782.84375 444.953125 C 782.84375 444.496094 782.386719 444.496094 782.386719 444.039062 L 785.121094 414.894531 Z M 845.230469 364.347656 C 841.132812 364.347656 837.488281 367.535156 837.488281 372.089844 L 837.488281 374.367188 C 837.488281 378.464844 841.132812 382.109375 845.230469 382.109375 C 849.328125 382.109375 852.972656 378.464844 852.972656 374.367188 L 852.972656 372.089844 C 852.972656 367.535156 849.328125 364.347656 845.230469 364.347656 Z M 837.488281 398.957031 C 837.488281 398.957031 837.035156 398.5 837.035156 398.957031 L 831.570312 411.707031 C 830.660156 413.53125 828.835938 414.894531 826.558594 414.894531 L 824.28125 414.894531 C 823.828125 414.894531 823.371094 414.894531 823.371094 414.441406 C 822.917969 413.984375 822.917969 413.53125 823.371094 413.074219 L 830.203125 397.136719 L 832.480469 390.761719 C 834.300781 387.117188 837.945312 384.386719 842.042969 384.386719 L 848.417969 384.386719 C 852.515625 384.386719 856.160156 387.117188 857.980469 390.761719 L 860.257812 397.136719 L 867.089844 413.074219 C 867.542969 413.53125 867.542969 413.984375 867.089844 414.441406 C 867.089844 414.894531 866.632812 414.894531 866.179688 414.894531 L 863.902344 414.894531 C 861.625 414.894531 859.804688 413.53125 858.890625 411.707031 L 853.429688 398.957031 C 853.429688 398.5 852.972656 398.957031 852.972656 398.957031 L 855.25 414.894531 L 857.980469 444.039062 C 857.980469 444.496094 857.527344 444.496094 857.527344 444.953125 C 857.070312 444.953125 857.070312 445.40625 856.617188 445.40625 L 854.792969 445.40625 C 852.0625 445.40625 849.785156 443.585938 849.785156 440.851562 L 845.6875 416.261719 C 845.230469 416.261719 845.230469 416.261719 844.777344 416.261719 L 840.675781 440.851562 C 840.675781 443.585938 838.398438 445.40625 835.667969 445.40625 L 833.847656 445.40625 C 833.390625 445.40625 833.390625 444.953125 832.933594 444.953125 C 832.933594 444.496094 832.480469 444.496094 832.480469 444.039062 L 835.210938 414.894531 Z M 895.324219 364.347656 C 891.226562 364.347656 887.582031 367.535156 887.582031 372.089844 L 887.582031 374.367188 C 887.582031 378.464844 891.226562 382.109375 895.324219 382.109375 C 899.421875 382.109375 903.066406 378.464844 903.066406 374.367188 L 903.066406 372.089844 C 903.066406 367.535156 899.421875 364.347656 895.324219 364.347656 Z M 887.582031 398.957031 C 887.582031 398.957031 887.125 398.5 887.125 398.957031 L 881.660156 411.707031 C 880.75 413.53125 878.929688 414.894531 876.652344 414.894531 L 874.375 414.894531 C 873.921875 414.894531 873.464844 414.894531 873.464844 414.441406 C 873.007812 413.984375 873.007812 413.53125 873.464844 413.074219 L 880.296875 397.136719 L 882.574219 390.761719 C 884.394531 387.117188 888.039062 384.386719 892.136719 384.386719 L 898.511719 384.386719 C 902.609375 384.386719 906.253906 387.117188 908.074219 390.761719 L 910.351562 397.136719 L 917.183594 413.074219 C 917.636719 413.53125 917.636719 413.984375 917.183594 414.441406 C 917.183594 414.894531 916.726562 414.894531 916.273438 414.894531 L 913.996094 414.894531 C 911.71875 414.894531 909.894531 413.53125 908.984375 411.707031 L 903.519531 398.957031 C 903.519531 398.5 903.066406 398.957031 903.066406 398.957031 L 905.34375 414.894531 L 908.074219 444.039062 C 908.074219 444.496094 907.621094 444.496094 907.621094 444.953125 C 907.164062 444.953125 907.164062 445.40625 906.707031 445.40625 L 904.886719 445.40625 C 902.15625 445.40625 899.878906 443.585938 899.878906 440.851562 L 895.777344 416.261719 C 895.324219 416.261719 895.324219 416.261719 894.867188 416.261719 L 890.769531 440.851562 C 890.769531 443.585938 888.492188 445.40625 885.761719 445.40625 L 883.9375 445.40625 C 883.484375 445.40625 883.484375 444.953125 883.027344 444.953125 C 883.027344 444.496094 882.574219 444.496094 882.574219 444.039062 L 885.304688 414.894531 Z M 945.417969 364.347656 C 941.316406 364.347656 937.675781 367.535156 937.675781 372.089844 L 937.675781 374.367188 C 937.675781 378.464844 941.316406 382.109375 945.417969 382.109375 C 949.515625 382.109375 953.15625 378.464844 953.15625 374.367188 L 953.15625 372.089844 C 953.15625 367.535156 949.515625 364.347656 945.417969 364.347656 Z M 937.675781 398.957031 C 937.675781 398.957031 937.21875 398.5 937.21875 398.957031 L 931.753906 411.707031 C 930.84375 413.53125 929.023438 414.894531 926.746094 414.894531 L 924.46875 414.894531 C 924.011719 414.894531 923.558594 414.894531 923.558594 414.441406 C 923.101562 413.984375 923.101562 413.53125 923.558594 413.074219 L 930.386719 397.136719 L 932.664062 390.761719 C 934.488281 387.117188 938.128906 384.386719 942.230469 384.386719 L 948.605469 384.386719 C 952.703125 384.386719 956.347656 387.117188 958.167969 390.761719 L 960.445312 397.136719 L 967.273438 413.074219 C 967.730469 413.53125 967.730469 413.984375 967.273438 414.441406 C 967.273438 414.894531 966.820312 414.894531 966.363281 414.894531 L 964.085938 414.894531 C 961.808594 414.894531 959.988281 413.53125 959.078125 411.707031 L 953.613281 398.957031 C 953.613281 398.5 953.15625 398.957031 953.15625 398.957031 L 955.433594 414.894531 L 958.167969 444.039062 C 958.167969 444.496094 957.710938 444.496094 957.710938 444.953125 C 957.257812 444.953125 957.257812 445.40625 956.800781 445.40625 L 954.980469 445.40625 C 952.246094 445.40625 949.96875 443.585938 949.96875 440.851562 L 945.871094 416.261719 C 945.417969 416.261719 945.417969 416.261719 944.960938 416.261719 L 940.863281 440.851562 C 940.863281 443.585938 938.585938 445.40625 935.851562 445.40625 L 934.03125 445.40625 C 933.578125 445.40625 933.578125 444.953125 933.121094 444.953125 C 933.121094 444.496094 932.664062 444.496094 932.664062 444.039062 L 935.398438 414.894531 Z M 937.675781 398.957031 " clip-rule="nonzero"/></clipPath></defs><g clip-path="url(#f5d9ca01a4)"><g clip-path="url(#5b46d243a0)"><path fill="#b2784a" d="M 471.8125 364.347656 L 968.3125 364.347656 L 968.3125 445.304688 L 471.8125 445.304688 Z M 471.8125 364.347656 " fill-opacity="1" fill-rule="nonzero"/></g></g><g clip-path="url(#971281f669)"><g clip-path="url(#e84e04a15b)"><path fill="#ebdacc" d="M 471.8125 364.347656 L 968.3125 364.347656 L 968.3125 445.304688 L 471.8125 445.304688 Z M 471.8125 364.347656 " fill-opacity="1" fill-rule="nonzero"/></g></g></svg>