<svg xmlns="http://www.w3.org/2000/svg" xmlns:xlink="http://www.w3.org/1999/xlink" width="662" zoomAndPan="magnify" viewBox="0 0 496.5 80.999996" height="108" preserveAspectRatio="xMidYMid meet" version="1.0"><defs><clipPath id="8dc7edd27a"><path d="M 0.378906 0.0625 L 145.386719 0.0625 L 145.386719 80.957031 L 0.378906 80.957031 Z M 0.378906 0.0625 " clip-rule="nonzero"/></clipPath><clipPath id="c15d4a24cf"><path d="M 22.808594 0.0625 C 18.714844 0.0625 15.074219 3.246094 15.074219 7.796875 L 15.074219 10.070312 C 15.074219 14.164062 18.714844 17.804688 22.808594 17.804688 C 26.902344 17.804688 30.542969 14.164062 30.542969 10.070312 L 30.542969 7.796875 C 30.542969 3.246094 26.902344 0.0625 22.808594 0.0625 Z M 15.074219 34.636719 C 15.074219 34.636719 14.621094 34.179688 14.621094 34.636719 L 9.160156 47.375 C 8.25 49.195312 6.429688 50.558594 4.15625 50.558594 L 1.882812 50.558594 C 1.425781 50.558594 0.972656 50.558594 0.972656 50.105469 C 0.515625 49.648438 0.515625 49.195312 0.972656 48.738281 L 7.796875 32.816406 L 10.070312 26.449219 C 11.890625 22.808594 15.53125 20.078125 19.625 20.078125 L 25.992188 20.078125 C 30.089844 20.078125 33.726562 22.808594 35.546875 26.449219 L 37.820312 32.816406 L 44.644531 48.738281 C 45.101562 49.195312 45.101562 49.648438 44.644531 50.105469 C 44.644531 50.558594 44.191406 50.558594 43.734375 50.558594 L 41.460938 50.558594 C 39.1875 50.558594 37.367188 49.195312 36.457031 47.375 L 30.996094 34.636719 C 30.996094 34.179688 30.542969 34.636719 30.542969 34.636719 L 32.816406 50.558594 L 35.546875 79.675781 C 35.546875 80.128906 35.09375 80.128906 35.09375 80.585938 C 34.636719 80.585938 34.636719 81.039062 34.183594 81.039062 L 32.363281 81.039062 C 29.632812 81.039062 27.359375 79.21875 27.359375 76.488281 L 23.265625 51.925781 C 22.808594 51.925781 22.808594 51.925781 22.355469 51.925781 L 18.261719 76.488281 C 18.261719 79.21875 15.984375 81.039062 13.253906 81.039062 L 11.4375 81.039062 C 10.980469 81.039062 10.980469 80.585938 10.527344 80.585938 C 10.527344 80.128906 10.070312 80.128906 10.070312 79.675781 L 12.800781 50.558594 Z M 72.851562 0.0625 C 68.757812 0.0625 65.117188 3.246094 65.117188 7.796875 L 65.117188 10.070312 C 65.117188 14.164062 68.757812 17.804688 72.851562 17.804688 C 76.945312 17.804688 80.585938 14.164062 80.585938 10.070312 L 80.585938 7.796875 C 80.585938 3.246094 76.945312 0.0625 72.851562 0.0625 Z M 65.117188 34.636719 C 65.117188 34.636719 64.664062 34.179688 64.664062 34.636719 L 59.203125 47.375 C 58.292969 49.195312 56.472656 50.558594 54.199219 50.558594 L 51.925781 50.558594 C 51.46875 50.558594 51.015625 50.558594 51.015625 50.105469 C 50.558594 49.648438 50.558594 49.195312 51.015625 48.738281 L 57.839844 32.816406 L 60.113281 26.449219 C 61.933594 22.808594 65.574219 20.078125 69.667969 20.078125 L 76.035156 20.078125 C 80.128906 20.078125 83.769531 22.808594 85.589844 26.449219 L 87.863281 32.816406 L 94.6875 48.738281 C 95.144531 49.195312 95.144531 49.648438 94.6875 50.105469 C 94.6875 50.558594 94.234375 50.558594 93.777344 50.558594 L 91.503906 50.558594 C 89.230469 50.558594 87.410156 49.195312 86.5 47.375 L 81.039062 34.636719 C 81.039062 34.179688 80.585938 34.636719 80.585938 34.636719 L 82.859375 50.558594 L 85.589844 79.675781 C 85.589844 80.128906 85.132812 80.128906 85.132812 80.585938 C 84.679688 80.585938 84.679688 81.039062 84.226562 81.039062 L 82.40625 81.039062 C 79.675781 81.039062 77.402344 79.21875 77.402344 76.488281 L 73.304688 51.925781 C 72.851562 51.925781 72.851562 51.925781 72.398438 51.925781 L 68.300781 76.488281 C 68.300781 79.21875 66.027344 81.039062 63.296875 81.039062 L 61.476562 81.039062 C 61.023438 81.039062 61.023438 80.585938 60.570312 80.585938 C 60.570312 80.128906 60.113281 80.128906 60.113281 79.675781 L 62.84375 50.558594 Z M 122.894531 0.0625 C 118.800781 0.0625 115.160156 3.246094 115.160156 7.796875 L 115.160156 10.070312 C 115.160156 14.164062 118.800781 17.804688 122.894531 17.804688 C 126.988281 17.804688 130.628906 14.164062 130.628906 10.070312 L 130.628906 7.796875 C 130.628906 3.246094 126.988281 0.0625 122.894531 0.0625 Z M 115.160156 34.636719 C 115.160156 34.636719 114.707031 34.179688 114.707031 34.636719 L 109.246094 47.375 C 108.335938 49.195312 106.515625 50.558594 104.242188 50.558594 L 101.96875 50.558594 C 101.511719 50.558594 101.058594 50.558594 101.058594 50.105469 C 100.601562 49.648438 100.601562 49.195312 101.058594 48.738281 L 107.882812 32.816406 L 110.15625 26.449219 C 111.976562 22.808594 115.613281 20.078125 119.710938 20.078125 L 126.078125 20.078125 C 130.171875 20.078125 133.8125 22.808594 135.632812 26.449219 L 137.90625 32.816406 L 144.730469 48.738281 C 145.1875 49.195312 145.1875 49.648438 144.730469 50.105469 C 144.730469 50.558594 144.277344 50.558594 143.820312 50.558594 L 141.546875 50.558594 C 139.273438 50.558594 137.453125 49.195312 136.542969 47.375 L 131.082031 34.636719 C 131.082031 34.179688 130.628906 34.636719 130.628906 34.636719 L 132.902344 50.558594 L 135.632812 79.675781 C 135.632812 80.128906 135.175781 80.128906 135.175781 80.585938 C 134.722656 80.585938 134.722656 81.039062 134.265625 81.039062 L 132.449219 81.039062 C 129.71875 81.039062 127.445312 79.21875 127.445312 76.488281 L 123.347656 51.925781 C 122.894531 51.925781 122.894531 51.925781 122.4375 51.925781 L 118.34375 76.488281 C 118.34375 79.21875 116.070312 81.039062 113.339844 81.039062 L 111.519531 81.039062 C 111.066406 81.039062 111.066406 80.585938 110.609375 80.585938 C 110.609375 80.128906 110.15625 80.128906 110.15625 79.675781 L 112.886719 50.558594 Z M 115.160156 34.636719 " clip-rule="nonzero"/></clipPath><clipPath id="b8d9702bbc"><path d="M 150.441406 0.0625 L 495.75 0.0625 L 495.75 80.957031 L 150.441406 80.957031 Z M 150.441406 0.0625 " clip-rule="nonzero"/></clipPath><clipPath id="5efcb21dfc"><path d="M 172.9375 0.0625 C 168.84375 0.0625 165.203125 3.246094 165.203125 7.796875 L 165.203125 10.070312 C 165.203125 14.164062 168.84375 17.804688 172.9375 17.804688 C 177.03125 17.804688 180.671875 14.164062 180.671875 10.070312 L 180.671875 7.796875 C 180.671875 3.246094 177.03125 0.0625 172.9375 0.0625 Z M 165.203125 34.636719 C 165.203125 34.636719 164.746094 34.179688 164.746094 34.636719 L 159.289062 47.375 C 158.378906 49.195312 156.558594 50.558594 154.285156 50.558594 L 152.007812 50.558594 C 151.554688 50.558594 151.101562 50.558594 151.101562 50.105469 C 150.644531 49.648438 150.644531 49.195312 151.101562 48.738281 L 157.921875 32.816406 L 160.199219 26.449219 C 162.019531 22.808594 165.65625 20.078125 169.753906 20.078125 L 176.121094 20.078125 C 180.214844 20.078125 183.855469 22.808594 185.675781 26.449219 L 187.949219 32.816406 L 194.773438 48.738281 C 195.226562 49.195312 195.226562 49.648438 194.773438 50.105469 C 194.773438 50.558594 194.316406 50.558594 193.863281 50.558594 L 191.589844 50.558594 C 189.3125 50.558594 187.496094 49.195312 186.585938 47.375 L 181.125 34.636719 C 181.125 34.179688 180.671875 34.636719 180.671875 34.636719 L 182.945312 50.558594 L 185.675781 79.675781 C 185.675781 80.128906 185.21875 80.128906 185.21875 80.585938 C 184.765625 80.585938 184.765625 81.039062 184.308594 81.039062 L 182.488281 81.039062 C 179.761719 81.039062 177.484375 79.21875 177.484375 76.488281 L 173.390625 51.925781 C 172.9375 51.925781 172.9375 51.925781 172.480469 51.925781 L 168.386719 76.488281 C 168.386719 79.21875 166.113281 81.039062 163.382812 81.039062 L 161.5625 81.039062 C 161.109375 81.039062 161.109375 80.585938 160.652344 80.585938 C 160.652344 80.128906 160.199219 80.128906 160.199219 79.675781 L 162.929688 50.558594 Z M 222.980469 0.0625 C 218.882812 0.0625 215.246094 3.246094 215.246094 7.796875 L 215.246094 10.070312 C 215.246094 14.164062 218.882812 17.804688 222.980469 17.804688 C 227.074219 17.804688 230.710938 14.164062 230.710938 10.070312 L 230.710938 7.796875 C 230.710938 3.246094 227.074219 0.0625 222.980469 0.0625 Z M 215.246094 34.636719 C 215.246094 34.636719 214.789062 34.179688 214.789062 34.636719 L 209.332031 47.375 C 208.421875 49.195312 206.601562 50.558594 204.328125 50.558594 L 202.050781 50.558594 C 201.597656 50.558594 201.140625 50.558594 201.140625 50.105469 C 200.6875 49.648438 200.6875 49.195312 201.140625 48.738281 L 207.964844 32.816406 L 210.242188 26.449219 C 212.0625 22.808594 215.699219 20.078125 219.792969 20.078125 L 226.164062 20.078125 C 230.257812 20.078125 233.898438 22.808594 235.71875 26.449219 L 237.992188 32.816406 L 244.816406 48.738281 C 245.269531 49.195312 245.269531 49.648438 244.816406 50.105469 C 244.816406 50.558594 244.359375 50.558594 243.90625 50.558594 L 241.632812 50.558594 C 239.355469 50.558594 237.535156 49.195312 236.625 47.375 L 231.167969 34.636719 C 231.167969 34.179688 230.710938 34.636719 230.710938 34.636719 L 232.988281 50.558594 L 235.71875 79.675781 C 235.71875 80.128906 235.261719 80.128906 235.261719 80.585938 C 234.808594 80.585938 234.808594 81.039062 234.351562 81.039062 L 232.53125 81.039062 C 229.804688 81.039062 227.527344 79.21875 227.527344 76.488281 L 223.433594 51.925781 C 222.980469 51.925781 222.980469 51.925781 222.523438 51.925781 L 218.429688 76.488281 C 218.429688 79.21875 216.15625 81.039062 213.425781 81.039062 L 211.605469 81.039062 C 211.152344 81.039062 211.152344 80.585938 210.695312 80.585938 C 210.695312 80.128906 210.242188 80.128906 210.242188 79.675781 L 212.96875 50.558594 Z M 273.019531 0.0625 C 268.925781 0.0625 265.289062 3.246094 265.289062 7.796875 L 265.289062 10.070312 C 265.289062 14.164062 268.925781 17.804688 273.019531 17.804688 C 277.117188 17.804688 280.753906 14.164062 280.753906 10.070312 L 280.753906 7.796875 C 280.753906 3.246094 277.117188 0.0625 273.019531 0.0625 Z M 265.289062 34.636719 C 265.289062 34.636719 264.832031 34.179688 264.832031 34.636719 L 259.375 47.375 C 258.464844 49.195312 256.644531 50.558594 254.371094 50.558594 L 252.09375 50.558594 C 251.640625 50.558594 251.183594 50.558594 251.183594 50.105469 C 250.730469 49.648438 250.730469 49.195312 251.183594 48.738281 L 258.007812 32.816406 L 260.285156 26.449219 C 262.101562 22.808594 265.742188 20.078125 269.835938 20.078125 L 276.207031 20.078125 C 280.300781 20.078125 283.941406 22.808594 285.757812 26.449219 L 288.035156 32.816406 L 294.859375 48.738281 C 295.3125 49.195312 295.3125 49.648438 294.859375 50.105469 C 294.859375 50.558594 294.402344 50.558594 293.949219 50.558594 L 291.671875 50.558594 C 289.398438 50.558594 287.578125 49.195312 286.667969 47.375 L 281.210938 34.636719 C 281.210938 34.179688 280.753906 34.636719 280.753906 34.636719 L 283.03125 50.558594 L 285.757812 79.675781 C 285.757812 80.128906 285.304688 80.128906 285.304688 80.585938 C 284.851562 80.585938 284.851562 81.039062 284.394531 81.039062 L 282.574219 81.039062 C 279.84375 81.039062 277.570312 79.21875 277.570312 76.488281 L 273.476562 51.925781 C 273.019531 51.925781 273.019531 51.925781 272.566406 51.925781 L 268.472656 76.488281 C 268.472656 79.21875 266.199219 81.039062 263.46875 81.039062 L 261.648438 81.039062 C 261.191406 81.039062 261.191406 80.585938 260.738281 80.585938 C 260.738281 80.128906 260.285156 80.128906 260.285156 79.675781 L 263.011719 50.558594 Z M 323.0625 0.0625 C 318.96875 0.0625 315.328125 3.246094 315.328125 7.796875 L 315.328125 10.070312 C 315.328125 14.164062 318.96875 17.804688 323.0625 17.804688 C 327.160156 17.804688 330.796875 14.164062 330.796875 10.070312 L 330.796875 7.796875 C 330.796875 3.246094 327.160156 0.0625 323.0625 0.0625 Z M 315.328125 34.636719 C 315.328125 34.636719 314.875 34.179688 314.875 34.636719 L 309.414062 47.375 C 308.507812 49.195312 306.6875 50.558594 304.410156 50.558594 L 302.136719 50.558594 C 301.683594 50.558594 301.226562 50.558594 301.226562 50.105469 C 300.773438 49.648438 300.773438 49.195312 301.226562 48.738281 L 308.050781 32.816406 L 310.324219 26.449219 C 312.144531 22.808594 315.785156 20.078125 319.878906 20.078125 L 326.25 20.078125 C 330.34375 20.078125 333.980469 22.808594 335.800781 26.449219 L 338.078125 32.816406 L 344.902344 48.738281 C 345.355469 49.195312 345.355469 49.648438 344.902344 50.105469 C 344.902344 50.558594 344.445312 50.558594 343.992188 50.558594 L 341.714844 50.558594 C 339.441406 50.558594 337.621094 49.195312 336.710938 47.375 L 331.253906 34.636719 C 331.253906 34.179688 330.796875 34.636719 330.796875 34.636719 L 333.074219 50.558594 L 335.800781 79.675781 C 335.800781 80.128906 335.347656 80.128906 335.347656 80.585938 C 334.890625 80.585938 334.890625 81.039062 334.4375 81.039062 L 332.617188 81.039062 C 329.886719 81.039062 327.613281 79.21875 327.613281 76.488281 L 323.519531 51.925781 C 323.0625 51.925781 323.0625 51.925781 322.609375 51.925781 L 318.515625 76.488281 C 318.515625 79.21875 316.238281 81.039062 313.511719 81.039062 L 311.691406 81.039062 C 311.234375 81.039062 311.234375 80.585938 310.78125 80.585938 C 310.78125 80.128906 310.324219 80.128906 310.324219 79.675781 L 313.054688 50.558594 Z M 373.105469 0.0625 C 369.011719 0.0625 365.371094 3.246094 365.371094 7.796875 L 365.371094 10.070312 C 365.371094 14.164062 369.011719 17.804688 373.105469 17.804688 C 377.199219 17.804688 380.839844 14.164062 380.839844 10.070312 L 380.839844 7.796875 C 380.839844 3.246094 377.199219 0.0625 373.105469 0.0625 Z M 365.371094 34.636719 C 365.371094 34.636719 364.917969 34.179688 364.917969 34.636719 L 359.457031 47.375 C 358.546875 49.195312 356.730469 50.558594 354.453125 50.558594 L 352.179688 50.558594 C 351.726562 50.558594 351.269531 50.558594 351.269531 50.105469 C 350.816406 49.648438 350.816406 49.195312 351.269531 48.738281 L 358.09375 32.816406 L 360.367188 26.449219 C 362.1875 22.808594 365.828125 20.078125 369.921875 20.078125 L 376.289062 20.078125 C 380.386719 20.078125 384.023438 22.808594 385.84375 26.449219 L 388.117188 32.816406 L 394.941406 48.738281 C 395.398438 49.195312 395.398438 49.648438 394.941406 50.105469 C 394.941406 50.558594 394.488281 50.558594 394.035156 50.558594 L 391.757812 50.558594 C 389.484375 50.558594 387.664062 49.195312 386.753906 47.375 L 381.296875 34.636719 C 381.296875 34.179688 380.839844 34.636719 380.839844 34.636719 L 383.113281 50.558594 L 385.84375 79.675781 C 385.84375 80.128906 385.390625 80.128906 385.390625 80.585938 C 384.933594 80.585938 384.933594 81.039062 384.480469 81.039062 L 382.660156 81.039062 C 379.929688 81.039062 377.65625 79.21875 377.65625 76.488281 L 373.5625 51.925781 C 373.105469 51.925781 373.105469 51.925781 372.652344 51.925781 L 368.558594 76.488281 C 368.558594 79.21875 366.28125 81.039062 363.554688 81.039062 L 361.734375 81.039062 C 361.277344 81.039062 361.277344 80.585938 360.824219 80.585938 C 360.824219 80.128906 360.367188 80.128906 360.367188 79.675781 L 363.097656 50.558594 Z M 423.148438 0.0625 C 419.054688 0.0625 415.414062 3.246094 415.414062 7.796875 L 415.414062 10.070312 C 415.414062 14.164062 419.054688 17.804688 423.148438 17.804688 C 427.242188 17.804688 430.882812 14.164062 430.882812 10.070312 L 430.882812 7.796875 C 430.882812 3.246094 427.242188 0.0625 423.148438 0.0625 Z M 415.414062 34.636719 C 415.414062 34.636719 414.960938 34.179688 414.960938 34.636719 L 409.5 47.375 C 408.589844 49.195312 406.769531 50.558594 404.496094 50.558594 L 402.222656 50.558594 C 401.765625 50.558594 401.3125 50.558594 401.3125 50.105469 C 400.855469 49.648438 400.855469 49.195312 401.3125 48.738281 L 408.136719 32.816406 L 410.410156 26.449219 C 412.230469 22.808594 415.871094 20.078125 419.964844 20.078125 L 426.332031 20.078125 C 430.429688 20.078125 434.066406 22.808594 435.886719 26.449219 L 438.160156 32.816406 L 444.984375 48.738281 C 445.441406 49.195312 445.441406 49.648438 444.984375 50.105469 C 444.984375 50.558594 444.53125 50.558594 444.074219 50.558594 L 441.800781 50.558594 C 439.527344 50.558594 437.707031 49.195312 436.796875 47.375 L 431.335938 34.636719 C 431.335938 34.179688 430.882812 34.636719 430.882812 34.636719 L 433.15625 50.558594 L 435.886719 79.675781 C 435.886719 80.128906 435.433594 80.128906 435.433594 80.585938 C 434.976562 80.585938 434.976562 81.039062 434.523438 81.039062 L 432.703125 81.039062 C 429.972656 81.039062 427.699219 79.21875 427.699219 76.488281 L 423.605469 51.925781 C 423.148438 51.925781 423.148438 51.925781 422.695312 51.925781 L 418.597656 76.488281 C 418.597656 79.21875 416.324219 81.039062 413.59375 81.039062 L 411.777344 81.039062 C 411.320312 81.039062 411.320312 80.585938 410.867188 80.585938 C 410.867188 80.128906 410.410156 80.128906 410.410156 79.675781 L 413.140625 50.558594 Z M 473.191406 0.0625 C 469.097656 0.0625 465.457031 3.246094 465.457031 7.796875 L 465.457031 10.070312 C 465.457031 14.164062 469.097656 17.804688 473.191406 17.804688 C 477.285156 17.804688 480.925781 14.164062 480.925781 10.070312 L 480.925781 7.796875 C 480.925781 3.246094 477.285156 0.0625 473.191406 0.0625 Z M 465.457031 34.636719 C 465.457031 34.636719 465.003906 34.179688 465.003906 34.636719 L 459.542969 47.375 C 458.632812 49.195312 456.8125 50.558594 454.539062 50.558594 L 452.265625 50.558594 C 451.808594 50.558594 451.355469 50.558594 451.355469 50.105469 C 450.898438 49.648438 450.898438 49.195312 451.355469 48.738281 L 458.179688 32.816406 L 460.453125 26.449219 C 462.273438 22.808594 465.914062 20.078125 470.007812 20.078125 L 476.375 20.078125 C 480.46875 20.078125 484.109375 22.808594 485.929688 26.449219 L 488.203125 32.816406 L 495.027344 48.738281 C 495.484375 49.195312 495.484375 49.648438 495.027344 50.105469 C 495.027344 50.558594 494.574219 50.558594 494.117188 50.558594 L 491.84375 50.558594 C 489.570312 50.558594 487.75 49.195312 486.839844 47.375 L 481.378906 34.636719 C 481.378906 34.179688 480.925781 34.636719 480.925781 34.636719 L 483.199219 50.558594 L 485.929688 79.675781 C 485.929688 80.128906 485.472656 80.128906 485.472656 80.585938 C 485.019531 80.585938 485.019531 81.039062 484.566406 81.039062 L 482.746094 81.039062 C 480.015625 81.039062 477.742188 79.21875 477.742188 76.488281 L 473.644531 51.925781 C 473.191406 51.925781 473.191406 51.925781 472.738281 51.925781 L 468.640625 76.488281 C 468.640625 79.21875 466.367188 81.039062 463.636719 81.039062 L 461.816406 81.039062 C 461.363281 81.039062 461.363281 80.585938 460.90625 80.585938 C 460.90625 80.128906 460.453125 80.128906 460.453125 79.675781 L 463.183594 50.558594 Z M 465.457031 34.636719 " clip-rule="nonzero"/></clipPath></defs><g clip-path="url(#8dc7edd27a)"><g clip-path="url(#c15d4a24cf)"><path fill="#59371c" d="M 0.0625 0.0625 L 496.0625 0.0625 L 496.0625 80.9375 L 0.0625 80.9375 Z M 0.0625 0.0625 " fill-opacity="1" fill-rule="nonzero"/></g></g><g clip-path="url(#b8d9702bbc)"><g clip-path="url(#5efcb21dfc)"><path fill="#b2784a" d="M 0.0625 0.0625 L 496.0625 0.0625 L 496.0625 80.9375 L 0.0625 80.9375 Z M 0.0625 0.0625 " fill-opacity="1" fill-rule="nonzero"/></g></g></svg>