<svg xmlns="http://www.w3.org/2000/svg" xmlns:xlink="http://www.w3.org/1999/xlink" width="662" zoomAndPan="magnify" viewBox="0 0 496.5 81.749997" height="109" preserveAspectRatio="xMidYMid meet" version="1.0"><defs><clipPath id="30e5625ef7"><path d="M 1 0.597656 L 145.597656 0.597656 L 145.597656 81.5 L 1 81.5 Z M 1 0.597656 " clip-rule="nonzero"/></clipPath><clipPath id="06130acd81"><path d="M 23.269531 0.597656 C 19.183594 0.597656 15.550781 3.773438 15.550781 8.3125 L 15.550781 10.582031 C 15.550781 14.671875 19.183594 18.300781 23.269531 18.300781 C 27.355469 18.300781 30.988281 14.671875 30.988281 10.582031 L 30.988281 8.3125 C 30.988281 3.773438 27.355469 0.597656 23.269531 0.597656 Z M 15.550781 35.101562 C 15.550781 35.101562 15.097656 34.644531 15.097656 35.101562 L 9.648438 47.8125 C 8.742188 49.628906 6.925781 50.988281 4.65625 50.988281 L 2.382812 50.988281 C 1.929688 50.988281 1.476562 50.988281 1.476562 50.535156 C 1.023438 50.082031 1.023438 49.628906 1.476562 49.175781 L 8.285156 33.285156 L 10.558594 26.929688 C 12.371094 23.296875 16.003906 20.570312 20.089844 20.570312 L 26.445312 20.570312 C 30.53125 20.570312 34.164062 23.296875 35.980469 26.929688 L 38.25 33.285156 L 45.0625 49.175781 C 45.515625 49.628906 45.515625 50.082031 45.0625 50.535156 C 45.0625 50.988281 44.605469 50.988281 44.152344 50.988281 L 41.882812 50.988281 C 39.613281 50.988281 37.796875 49.628906 36.890625 47.8125 L 31.441406 35.101562 C 31.441406 34.644531 30.988281 35.101562 30.988281 35.101562 L 33.257812 50.988281 L 35.980469 80.046875 C 35.980469 80.5 35.527344 80.5 35.527344 80.953125 C 35.074219 80.953125 35.074219 81.40625 34.617188 81.40625 L 32.804688 81.40625 C 30.078125 81.40625 27.808594 79.59375 27.808594 76.867188 L 23.722656 52.351562 C 23.269531 52.351562 23.269531 52.351562 22.816406 52.351562 L 18.730469 76.867188 C 18.730469 79.59375 16.457031 81.40625 13.734375 81.40625 L 11.917969 81.40625 C 11.464844 81.40625 11.464844 80.953125 11.011719 80.953125 C 11.011719 80.5 10.558594 80.5 10.558594 80.046875 L 13.28125 50.988281 Z M 73.207031 0.597656 C 69.121094 0.597656 65.492188 3.773438 65.492188 8.3125 L 65.492188 10.582031 C 65.492188 14.671875 69.121094 18.300781 73.207031 18.300781 C 77.296875 18.300781 80.925781 14.671875 80.925781 10.582031 L 80.925781 8.3125 C 80.925781 3.773438 77.296875 0.597656 73.207031 0.597656 Z M 65.492188 35.101562 C 65.492188 35.101562 65.035156 34.644531 65.035156 35.101562 L 59.589844 47.8125 C 58.679688 49.628906 56.863281 50.988281 54.59375 50.988281 L 52.324219 50.988281 C 51.871094 50.988281 51.417969 50.988281 51.417969 50.535156 C 50.964844 50.082031 50.964844 49.628906 51.417969 49.175781 L 58.226562 33.285156 L 60.496094 26.929688 C 62.3125 23.296875 65.945312 20.570312 70.03125 20.570312 L 76.386719 20.570312 C 80.472656 20.570312 84.105469 23.296875 85.921875 26.929688 L 88.191406 33.285156 L 95 49.175781 C 95.453125 49.628906 95.453125 50.082031 95 50.535156 C 95 50.988281 94.546875 50.988281 94.09375 50.988281 L 91.824219 50.988281 C 89.554688 50.988281 87.738281 49.628906 86.828125 47.8125 L 81.382812 35.101562 C 81.382812 34.644531 80.925781 35.101562 80.925781 35.101562 L 83.195312 50.988281 L 85.921875 80.046875 C 85.921875 80.5 85.46875 80.5 85.46875 80.953125 C 85.011719 80.953125 85.011719 81.40625 84.558594 81.40625 L 82.742188 81.40625 C 80.019531 81.40625 77.75 79.59375 77.75 76.867188 L 73.664062 52.351562 C 73.207031 52.351562 73.207031 52.351562 72.753906 52.351562 L 68.667969 76.867188 C 68.667969 79.59375 66.398438 81.40625 63.675781 81.40625 L 61.859375 81.40625 C 61.40625 81.40625 61.40625 80.953125 60.949219 80.953125 C 60.949219 80.5 60.496094 80.5 60.496094 80.046875 L 63.222656 50.988281 Z M 123.148438 0.597656 C 119.0625 0.597656 115.429688 3.773438 115.429688 8.3125 L 115.429688 10.582031 C 115.429688 14.671875 119.0625 18.300781 123.148438 18.300781 C 127.234375 18.300781 130.867188 14.671875 130.867188 10.582031 L 130.867188 8.3125 C 130.867188 3.773438 127.234375 0.597656 123.148438 0.597656 Z M 115.429688 35.101562 C 115.429688 35.101562 114.976562 34.644531 114.976562 35.101562 L 109.527344 47.8125 C 108.621094 49.628906 106.804688 50.988281 104.535156 50.988281 L 102.265625 50.988281 C 101.8125 50.988281 101.355469 50.988281 101.355469 50.535156 C 100.902344 50.082031 100.902344 49.628906 101.355469 49.175781 L 108.167969 33.285156 L 110.4375 26.929688 C 112.253906 23.296875 115.886719 20.570312 119.972656 20.570312 L 126.328125 20.570312 C 130.414062 20.570312 134.046875 23.296875 135.859375 26.929688 L 138.132812 33.285156 L 144.941406 49.175781 C 145.394531 49.628906 145.394531 50.082031 144.941406 50.535156 C 144.941406 50.988281 144.488281 50.988281 144.03125 50.988281 L 141.761719 50.988281 C 139.492188 50.988281 137.675781 49.628906 136.769531 47.8125 L 131.320312 35.101562 C 131.320312 34.644531 130.867188 35.101562 130.867188 35.101562 L 133.136719 50.988281 L 135.859375 80.046875 C 135.859375 80.5 135.40625 80.5 135.40625 80.953125 C 134.953125 80.953125 134.953125 81.40625 134.5 81.40625 L 132.683594 81.40625 C 129.960938 81.40625 127.6875 79.59375 127.6875 76.867188 L 123.601562 52.351562 C 123.148438 52.351562 123.148438 52.351562 122.695312 52.351562 L 118.609375 76.867188 C 118.609375 79.59375 116.339844 81.40625 113.613281 81.40625 L 111.800781 81.40625 C 111.34375 81.40625 111.34375 80.953125 110.890625 80.953125 C 110.890625 80.5 110.4375 80.5 110.4375 80.046875 L 113.160156 50.988281 Z M 115.429688 35.101562 " clip-rule="nonzero"/></clipPath><clipPath id="56eead9c24"><path d="M 150.640625 0.597656 L 495 0.597656 L 495 81.5 L 150.640625 81.5 Z M 150.640625 0.597656 " clip-rule="nonzero"/></clipPath><clipPath id="ed58d440f1"><path d="M 173.089844 0.597656 C 169.003906 0.597656 165.371094 3.773438 165.371094 8.3125 L 165.371094 10.582031 C 165.371094 14.671875 169.003906 18.300781 173.089844 18.300781 C 177.175781 18.300781 180.808594 14.671875 180.808594 10.582031 L 180.808594 8.3125 C 180.808594 3.773438 177.175781 0.597656 173.089844 0.597656 Z M 165.371094 35.101562 C 165.371094 35.101562 164.917969 34.644531 164.917969 35.101562 L 159.46875 47.8125 C 158.5625 49.628906 156.746094 50.988281 154.476562 50.988281 L 152.207031 50.988281 C 151.75 50.988281 151.296875 50.988281 151.296875 50.535156 C 150.84375 50.082031 150.84375 49.628906 151.296875 49.175781 L 158.105469 33.285156 L 160.378906 26.929688 C 162.191406 23.296875 165.824219 20.570312 169.910156 20.570312 L 176.265625 20.570312 C 180.351562 20.570312 183.984375 23.296875 185.800781 26.929688 L 188.070312 33.285156 L 194.882812 49.175781 C 195.335938 49.628906 195.335938 50.082031 194.882812 50.535156 C 194.882812 50.988281 194.425781 50.988281 193.972656 50.988281 L 191.703125 50.988281 C 189.433594 50.988281 187.617188 49.628906 186.710938 47.8125 L 181.261719 35.101562 C 181.261719 34.644531 180.808594 35.101562 180.808594 35.101562 L 183.078125 50.988281 L 185.800781 80.046875 C 185.800781 80.5 185.347656 80.5 185.347656 80.953125 C 184.894531 80.953125 184.894531 81.40625 184.4375 81.40625 L 182.625 81.40625 C 179.898438 81.40625 177.628906 79.59375 177.628906 76.867188 L 173.542969 52.351562 C 173.089844 52.351562 173.089844 52.351562 172.636719 52.351562 L 168.550781 76.867188 C 168.550781 79.59375 166.277344 81.40625 163.554688 81.40625 L 161.738281 81.40625 C 161.285156 81.40625 161.285156 80.953125 160.832031 80.953125 C 160.832031 80.5 160.378906 80.5 160.378906 80.046875 L 163.101562 50.988281 Z M 223.03125 0.597656 C 218.941406 0.597656 215.3125 3.773438 215.3125 8.3125 L 215.3125 10.582031 C 215.3125 14.671875 218.941406 18.300781 223.03125 18.300781 C 227.117188 18.300781 230.746094 14.671875 230.746094 10.582031 L 230.746094 8.3125 C 230.746094 3.773438 227.117188 0.597656 223.03125 0.597656 Z M 215.3125 35.101562 C 215.3125 35.101562 214.855469 34.644531 214.855469 35.101562 L 209.410156 47.8125 C 208.5 49.628906 206.683594 50.988281 204.414062 50.988281 L 202.144531 50.988281 C 201.691406 50.988281 201.238281 50.988281 201.238281 50.535156 C 200.785156 50.082031 200.785156 49.628906 201.238281 49.175781 L 208.046875 33.285156 L 210.316406 26.929688 C 212.132812 23.296875 215.765625 20.570312 219.851562 20.570312 L 226.207031 20.570312 C 230.292969 20.570312 233.925781 23.296875 235.742188 26.929688 L 238.011719 33.285156 L 244.820312 49.175781 C 245.277344 49.628906 245.277344 50.082031 244.820312 50.535156 C 244.820312 50.988281 244.367188 50.988281 243.914062 50.988281 L 241.644531 50.988281 C 239.375 50.988281 237.558594 49.628906 236.648438 47.8125 L 231.203125 35.101562 C 231.203125 34.644531 230.746094 35.101562 230.746094 35.101562 L 233.015625 50.988281 L 235.742188 80.046875 C 235.742188 80.5 235.289062 80.5 235.289062 80.953125 C 234.832031 80.953125 234.832031 81.40625 234.378906 81.40625 L 232.5625 81.40625 C 229.839844 81.40625 227.570312 79.59375 227.570312 76.867188 L 223.484375 52.351562 C 223.03125 52.351562 223.03125 52.351562 222.574219 52.351562 L 218.488281 76.867188 C 218.488281 79.59375 216.21875 81.40625 213.496094 81.40625 L 211.679688 81.40625 C 211.226562 81.40625 211.226562 80.953125 210.769531 80.953125 C 210.769531 80.5 210.316406 80.5 210.316406 80.046875 L 213.042969 50.988281 Z M 272.96875 0.597656 C 268.882812 0.597656 265.25 3.773438 265.25 8.3125 L 265.25 10.582031 C 265.25 14.671875 268.882812 18.300781 272.96875 18.300781 C 277.054688 18.300781 280.6875 14.671875 280.6875 10.582031 L 280.6875 8.3125 C 280.6875 3.773438 277.054688 0.597656 272.96875 0.597656 Z M 265.25 35.101562 C 265.25 35.101562 264.796875 34.644531 264.796875 35.101562 L 259.347656 47.8125 C 258.441406 49.628906 256.625 50.988281 254.355469 50.988281 L 252.085938 50.988281 C 251.632812 50.988281 251.175781 50.988281 251.175781 50.535156 C 250.722656 50.082031 250.722656 49.628906 251.175781 49.175781 L 257.988281 33.285156 L 260.257812 26.929688 C 262.074219 23.296875 265.707031 20.570312 269.792969 20.570312 L 276.148438 20.570312 C 280.234375 20.570312 283.867188 23.296875 285.679688 26.929688 L 287.953125 33.285156 L 294.761719 49.175781 C 295.214844 49.628906 295.214844 50.082031 294.761719 50.535156 C 294.761719 50.988281 294.308594 50.988281 293.855469 50.988281 L 291.582031 50.988281 C 289.3125 50.988281 287.496094 49.628906 286.589844 47.8125 L 281.140625 35.101562 C 281.140625 34.644531 280.6875 35.101562 280.6875 35.101562 L 282.957031 50.988281 L 285.679688 80.046875 C 285.679688 80.5 285.226562 80.5 285.226562 80.953125 C 284.773438 80.953125 284.773438 81.40625 284.320312 81.40625 L 282.503906 81.40625 C 279.78125 81.40625 277.507812 79.59375 277.507812 76.867188 L 273.421875 52.351562 C 272.96875 52.351562 272.96875 52.351562 272.515625 52.351562 L 268.429688 76.867188 C 268.429688 79.59375 266.160156 81.40625 263.433594 81.40625 L 261.621094 81.40625 C 261.164062 81.40625 261.164062 80.953125 260.710938 80.953125 C 260.710938 80.5 260.257812 80.5 260.257812 80.046875 L 262.980469 50.988281 Z M 322.910156 0.597656 C 318.824219 0.597656 315.191406 3.773438 315.191406 8.3125 L 315.191406 10.582031 C 315.191406 14.671875 318.824219 18.300781 322.910156 18.300781 C 326.996094 18.300781 330.628906 14.671875 330.628906 10.582031 L 330.628906 8.3125 C 330.628906 3.773438 326.996094 0.597656 322.910156 0.597656 Z M 315.191406 35.101562 C 315.191406 35.101562 314.738281 34.644531 314.738281 35.101562 L 309.289062 47.8125 C 308.382812 49.628906 306.566406 50.988281 304.296875 50.988281 L 302.027344 50.988281 C 301.570312 50.988281 301.117188 50.988281 301.117188 50.535156 C 300.664062 50.082031 300.664062 49.628906 301.117188 49.175781 L 307.925781 33.285156 L 310.199219 26.929688 C 312.011719 23.296875 315.644531 20.570312 319.730469 20.570312 L 326.085938 20.570312 C 330.171875 20.570312 333.804688 23.296875 335.621094 26.929688 L 337.890625 33.285156 L 344.703125 49.175781 C 345.15625 49.628906 345.15625 50.082031 344.703125 50.535156 C 344.703125 50.988281 344.246094 50.988281 343.792969 50.988281 L 341.523438 50.988281 C 339.253906 50.988281 337.4375 49.628906 336.53125 47.8125 L 331.082031 35.101562 C 331.082031 34.644531 330.628906 35.101562 330.628906 35.101562 L 332.898438 50.988281 L 335.621094 80.046875 C 335.621094 80.5 335.167969 80.5 335.167969 80.953125 C 334.714844 80.953125 334.714844 81.40625 334.257812 81.40625 L 332.445312 81.40625 C 329.71875 81.40625 327.449219 79.59375 327.449219 76.867188 L 323.363281 52.351562 C 322.910156 52.351562 322.910156 52.351562 322.457031 52.351562 L 318.371094 76.867188 C 318.371094 79.59375 316.097656 81.40625 313.375 81.40625 L 311.558594 81.40625 C 311.105469 81.40625 311.105469 80.953125 310.652344 80.953125 C 310.652344 80.5 310.199219 80.5 310.199219 80.046875 L 312.921875 50.988281 Z M 372.851562 0.597656 C 368.765625 0.597656 365.132812 3.773438 365.132812 8.3125 L 365.132812 10.582031 C 365.132812 14.671875 368.765625 18.300781 372.851562 18.300781 C 376.9375 18.300781 380.566406 14.671875 380.566406 10.582031 L 380.566406 8.3125 C 380.566406 3.773438 376.9375 0.597656 372.851562 0.597656 Z M 365.132812 35.101562 C 365.132812 35.101562 364.679688 34.644531 364.679688 35.101562 L 359.230469 47.8125 C 358.320312 49.628906 356.503906 50.988281 354.234375 50.988281 L 351.964844 50.988281 C 351.511719 50.988281 351.058594 50.988281 351.058594 50.535156 C 350.605469 50.082031 350.605469 49.628906 351.058594 49.175781 L 357.867188 33.285156 L 360.136719 26.929688 C 361.953125 23.296875 365.585938 20.570312 369.671875 20.570312 L 376.027344 20.570312 C 380.113281 20.570312 383.746094 23.296875 385.5625 26.929688 L 387.832031 33.285156 L 394.640625 49.175781 C 395.097656 49.628906 395.097656 50.082031 394.640625 50.535156 C 394.640625 50.988281 394.1875 50.988281 393.734375 50.988281 L 391.464844 50.988281 C 389.195312 50.988281 387.378906 49.628906 386.46875 47.8125 L 381.023438 35.101562 C 381.023438 34.644531 380.566406 35.101562 380.566406 35.101562 L 382.835938 50.988281 L 385.5625 80.046875 C 385.5625 80.5 385.109375 80.5 385.109375 80.953125 C 384.652344 80.953125 384.652344 81.40625 384.199219 81.40625 L 382.382812 81.40625 C 379.660156 81.40625 377.390625 79.59375 377.390625 76.867188 L 373.304688 52.351562 C 372.851562 52.351562 372.851562 52.351562 372.394531 52.351562 L 368.308594 76.867188 C 368.308594 79.59375 366.039062 81.40625 363.316406 81.40625 L 361.5 81.40625 C 361.046875 81.40625 361.046875 80.953125 360.589844 80.953125 C 360.589844 80.5 360.136719 80.5 360.136719 80.046875 L 362.863281 50.988281 Z M 422.789062 0.597656 C 418.703125 0.597656 415.070312 3.773438 415.070312 8.3125 L 415.070312 10.582031 C 415.070312 14.671875 418.703125 18.300781 422.789062 18.300781 C 426.875 18.300781 430.507812 14.671875 430.507812 10.582031 L 430.507812 8.3125 C 430.507812 3.773438 426.875 0.597656 422.789062 0.597656 Z M 415.070312 35.101562 C 415.070312 35.101562 414.617188 34.644531 414.617188 35.101562 L 409.167969 47.8125 C 408.261719 49.628906 406.445312 50.988281 404.175781 50.988281 L 401.90625 50.988281 C 401.453125 50.988281 400.996094 50.988281 400.996094 50.535156 C 400.542969 50.082031 400.542969 49.628906 400.996094 49.175781 L 407.808594 33.285156 L 410.078125 26.929688 C 411.894531 23.296875 415.527344 20.570312 419.613281 20.570312 L 425.96875 20.570312 C 430.054688 20.570312 433.6875 23.296875 435.5 26.929688 L 437.773438 33.285156 L 444.582031 49.175781 C 445.035156 49.628906 445.035156 50.082031 444.582031 50.535156 C 444.582031 50.988281 444.128906 50.988281 443.675781 50.988281 L 441.402344 50.988281 C 439.132812 50.988281 437.316406 49.628906 436.410156 47.8125 L 430.960938 35.101562 C 430.960938 34.644531 430.507812 35.101562 430.507812 35.101562 L 432.777344 50.988281 L 435.5 80.046875 C 435.5 80.5 435.046875 80.5 435.046875 80.953125 C 434.59375 80.953125 434.59375 81.40625 434.140625 81.40625 L 432.324219 81.40625 C 429.601562 81.40625 427.328125 79.59375 427.328125 76.867188 L 423.242188 52.351562 C 422.789062 52.351562 422.789062 52.351562 422.335938 52.351562 L 418.25 76.867188 C 418.25 79.59375 415.980469 81.40625 413.253906 81.40625 L 411.441406 81.40625 C 410.984375 81.40625 410.984375 80.953125 410.53125 80.953125 C 410.53125 80.5 410.078125 80.5 410.078125 80.046875 L 412.800781 50.988281 Z M 472.730469 0.597656 C 468.644531 0.597656 465.011719 3.773438 465.011719 8.3125 L 465.011719 10.582031 C 465.011719 14.671875 468.644531 18.300781 472.730469 18.300781 C 476.816406 18.300781 480.449219 14.671875 480.449219 10.582031 L 480.449219 8.3125 C 480.449219 3.773438 476.816406 0.597656 472.730469 0.597656 Z M 465.011719 35.101562 C 465.011719 35.101562 464.558594 34.644531 464.558594 35.101562 L 459.109375 47.8125 C 458.203125 49.628906 456.386719 50.988281 454.117188 50.988281 L 451.847656 50.988281 C 451.390625 50.988281 450.9375 50.988281 450.9375 50.535156 C 450.484375 50.082031 450.484375 49.628906 450.9375 49.175781 L 457.746094 33.285156 L 460.019531 26.929688 C 461.835938 23.296875 465.464844 20.570312 469.550781 20.570312 L 475.90625 20.570312 C 479.992188 20.570312 483.625 23.296875 485.441406 26.929688 L 487.710938 33.285156 L 494.523438 49.175781 C 494.976562 49.628906 494.976562 50.082031 494.523438 50.535156 C 494.523438 50.988281 494.066406 50.988281 493.613281 50.988281 L 491.34375 50.988281 C 489.074219 50.988281 487.257812 49.628906 486.351562 47.8125 L 480.902344 35.101562 C 480.902344 34.644531 480.449219 35.101562 480.449219 35.101562 L 482.71875 50.988281 L 485.441406 80.046875 C 485.441406 80.5 484.988281 80.5 484.988281 80.953125 C 484.535156 80.953125 484.535156 81.40625 484.078125 81.40625 L 482.265625 81.40625 C 479.539062 81.40625 477.269531 79.59375 477.269531 76.867188 L 473.183594 52.351562 C 472.730469 52.351562 472.730469 52.351562 472.277344 52.351562 L 468.191406 76.867188 C 468.191406 79.59375 465.921875 81.40625 463.195312 81.40625 L 461.378906 81.40625 C 460.925781 81.40625 460.925781 80.953125 460.472656 80.953125 C 460.472656 80.5 460.019531 80.5 460.019531 80.046875 L 462.742188 50.988281 Z M 465.011719 35.101562 " clip-rule="nonzero"/></clipPath></defs><g clip-path="url(#30e5625ef7)"><g clip-path="url(#06130acd81)"><path fill="#b2784a" d="M 0.570312 0.597656 L 495.554688 0.597656 L 495.554688 81.308594 L 0.570312 81.308594 Z M 0.570312 0.597656 " fill-opacity="1" fill-rule="nonzero"/></g></g><g clip-path="url(#56eead9c24)"><g clip-path="url(#ed58d440f1)"><path fill="#ebdacc" d="M 0.570312 0.597656 L 495.554688 0.597656 L 495.554688 81.308594 L 0.570312 81.308594 Z M 0.570312 0.597656 " fill-opacity="1" fill-rule="nonzero"/></g></g></svg>