<svg xmlns="http://www.w3.org/2000/svg" xmlns:xlink="http://www.w3.org/1999/xlink" width="1080" zoomAndPan="magnify" viewBox="0 0 810 809.999993" height="1080" preserveAspectRatio="xMidYMid meet" version="1.0"><defs><clipPath id="493cc760c8"><path d="M 157.128906 405 L 302 405 L 302 486 L 157.128906 486 Z M 157.128906 405 " clip-rule="nonzero"/></clipPath><clipPath id="865b8f3284"><path d="M 179.582031 405 C 175.484375 405 171.839844 408.1875 171.839844 412.742188 L 171.839844 415.019531 C 171.839844 419.117188 175.484375 422.761719 179.582031 422.761719 C 183.679688 422.761719 187.324219 419.117188 187.324219 415.019531 L 187.324219 412.742188 C 187.324219 408.1875 183.679688 405 179.582031 405 Z M 171.839844 439.609375 C 171.839844 439.609375 171.386719 439.152344 171.386719 439.609375 L 165.921875 452.359375 C 165.007812 454.183594 163.1875 455.546875 160.910156 455.546875 L 158.632812 455.546875 C 158.179688 455.546875 157.722656 455.546875 157.722656 455.09375 C 157.269531 454.636719 157.269531 454.183594 157.722656 453.726562 L 164.554688 437.789062 L 166.832031 431.414062 C 168.652344 427.769531 172.296875 425.039062 176.394531 425.039062 L 182.769531 425.039062 C 186.867188 425.039062 190.511719 427.769531 192.332031 431.414062 L 194.609375 437.789062 L 201.441406 453.726562 C 201.894531 454.183594 201.894531 454.636719 201.441406 455.09375 C 201.441406 455.546875 200.984375 455.546875 200.53125 455.546875 L 198.253906 455.546875 C 195.976562 455.546875 194.15625 454.183594 193.242188 452.359375 L 187.777344 439.609375 C 187.777344 439.152344 187.324219 439.609375 187.324219 439.609375 L 189.601562 455.546875 L 192.332031 484.691406 C 192.332031 485.148438 191.878906 485.148438 191.878906 485.605469 C 191.421875 485.605469 191.421875 486.058594 190.96875 486.058594 L 189.144531 486.058594 C 186.414062 486.058594 184.136719 484.238281 184.136719 481.503906 L 180.039062 456.914062 C 179.582031 456.914062 179.582031 456.914062 179.125 456.914062 L 175.027344 481.503906 C 175.027344 484.238281 172.75 486.058594 170.019531 486.058594 L 168.199219 486.058594 C 167.742188 486.058594 167.742188 485.605469 167.285156 485.605469 C 167.285156 485.148438 166.832031 485.148438 166.832031 484.691406 L 169.5625 455.546875 Z M 229.675781 405 C 225.578125 405 221.933594 408.1875 221.933594 412.742188 L 221.933594 415.019531 C 221.933594 419.117188 225.578125 422.761719 229.675781 422.761719 C 233.773438 422.761719 237.417969 419.117188 237.417969 415.019531 L 237.417969 412.742188 C 237.417969 408.1875 233.773438 405 229.675781 405 Z M 221.933594 439.609375 C 221.933594 439.609375 221.476562 439.152344 221.476562 439.609375 L 216.011719 452.359375 C 215.101562 454.183594 213.28125 455.546875 211.003906 455.546875 L 208.726562 455.546875 C 208.273438 455.546875 207.816406 455.546875 207.816406 455.09375 C 207.359375 454.636719 207.359375 454.183594 207.816406 453.726562 L 214.648438 437.789062 L 216.925781 431.414062 C 218.746094 427.769531 222.390625 425.039062 226.488281 425.039062 L 232.863281 425.039062 C 236.960938 425.039062 240.605469 427.769531 242.425781 431.414062 L 244.703125 437.789062 L 251.535156 453.726562 C 251.988281 454.183594 251.988281 454.636719 251.535156 455.09375 C 251.535156 455.546875 251.078125 455.546875 250.621094 455.546875 L 248.347656 455.546875 C 246.070312 455.546875 244.246094 454.183594 243.335938 452.359375 L 237.871094 439.609375 C 237.871094 439.152344 237.417969 439.609375 237.417969 439.609375 L 239.695312 455.546875 L 242.425781 484.691406 C 242.425781 485.148438 241.96875 485.148438 241.96875 485.605469 C 241.515625 485.605469 241.515625 486.058594 241.058594 486.058594 L 239.238281 486.058594 C 236.503906 486.058594 234.230469 484.238281 234.230469 481.503906 L 230.128906 456.914062 C 229.675781 456.914062 229.675781 456.914062 229.21875 456.914062 L 225.121094 481.503906 C 225.121094 484.238281 222.84375 486.058594 220.113281 486.058594 L 218.289062 486.058594 C 217.835938 486.058594 217.835938 485.605469 217.378906 485.605469 C 217.378906 485.148438 216.925781 485.148438 216.925781 484.691406 L 219.65625 455.546875 Z M 279.769531 405 C 275.667969 405 272.027344 408.1875 272.027344 412.742188 L 272.027344 415.019531 C 272.027344 419.117188 275.667969 422.761719 279.769531 422.761719 C 283.867188 422.761719 287.507812 419.117188 287.507812 415.019531 L 287.507812 412.742188 C 287.507812 408.1875 283.867188 405 279.769531 405 Z M 272.027344 439.609375 C 272.027344 439.609375 271.570312 439.152344 271.570312 439.609375 L 266.105469 452.359375 C 265.195312 454.183594 263.375 455.546875 261.097656 455.546875 L 258.820312 455.546875 C 258.363281 455.546875 257.910156 455.546875 257.910156 455.09375 C 257.453125 454.636719 257.453125 454.183594 257.910156 453.726562 L 264.738281 437.789062 L 267.015625 431.414062 C 268.839844 427.769531 272.480469 425.039062 276.582031 425.039062 L 282.957031 425.039062 C 287.054688 425.039062 290.695312 427.769531 292.519531 431.414062 L 294.796875 437.789062 L 301.625 453.726562 C 302.082031 454.183594 302.082031 454.636719 301.625 455.09375 C 301.625 455.546875 301.171875 455.546875 300.714844 455.546875 L 298.4375 455.546875 C 296.160156 455.546875 294.339844 454.183594 293.429688 452.359375 L 287.964844 439.609375 C 287.964844 439.152344 287.507812 439.609375 287.507812 439.609375 L 289.785156 455.546875 L 292.519531 484.691406 C 292.519531 485.148438 292.0625 485.148438 292.0625 485.605469 C 291.609375 485.605469 291.609375 486.058594 291.152344 486.058594 L 289.332031 486.058594 C 286.597656 486.058594 284.320312 484.238281 284.320312 481.503906 L 280.222656 456.914062 C 279.769531 456.914062 279.769531 456.914062 279.3125 456.914062 L 275.214844 481.503906 C 275.214844 484.238281 272.9375 486.058594 270.203125 486.058594 L 268.382812 486.058594 C 267.925781 486.058594 267.925781 485.605469 267.472656 485.605469 C 267.472656 485.148438 267.015625 485.148438 267.015625 484.691406 L 269.75 455.546875 Z M 272.027344 439.609375 " clip-rule="nonzero"/></clipPath><clipPath id="15396f2924"><path d="M 307.34375 405 L 652.996094 405 L 652.996094 486 L 307.34375 486 Z M 307.34375 405 " clip-rule="nonzero"/></clipPath><clipPath id="5eae030685"><path d="M 329.859375 405 C 325.761719 405 322.117188 408.1875 322.117188 412.742188 L 322.117188 415.019531 C 322.117188 419.117188 325.761719 422.761719 329.859375 422.761719 C 333.960938 422.761719 337.601562 419.117188 337.601562 415.019531 L 337.601562 412.742188 C 337.601562 408.1875 333.960938 405 329.859375 405 Z M 322.117188 439.609375 C 322.117188 439.609375 321.664062 439.152344 321.664062 439.609375 L 316.199219 452.359375 C 315.289062 454.183594 313.464844 455.546875 311.191406 455.546875 L 308.914062 455.546875 C 308.457031 455.546875 308.003906 455.546875 308.003906 455.09375 C 307.546875 454.636719 307.546875 454.183594 308.003906 453.726562 L 314.832031 437.789062 L 317.109375 431.414062 C 318.929688 427.769531 322.574219 425.039062 326.671875 425.039062 L 333.046875 425.039062 C 337.148438 425.039062 340.789062 427.769531 342.613281 431.414062 L 344.886719 437.789062 L 351.71875 453.726562 C 352.175781 454.183594 352.175781 454.636719 351.71875 455.09375 C 351.71875 455.546875 351.265625 455.546875 350.808594 455.546875 L 348.53125 455.546875 C 346.253906 455.546875 344.433594 454.183594 343.523438 452.359375 L 338.058594 439.609375 C 338.058594 439.152344 337.601562 439.609375 337.601562 439.609375 L 339.878906 455.546875 L 342.613281 484.691406 C 342.613281 485.148438 342.15625 485.148438 342.15625 485.605469 C 341.699219 485.605469 341.699219 486.058594 341.246094 486.058594 L 339.425781 486.058594 C 336.691406 486.058594 334.414062 484.238281 334.414062 481.503906 L 330.316406 456.914062 C 329.859375 456.914062 329.859375 456.914062 329.40625 456.914062 L 325.308594 481.503906 C 325.308594 484.238281 323.03125 486.058594 320.296875 486.058594 L 318.476562 486.058594 C 318.019531 486.058594 318.019531 485.605469 317.566406 485.605469 C 317.566406 485.148438 317.109375 485.148438 317.109375 484.691406 L 319.84375 455.546875 Z M 379.953125 405 C 375.855469 405 372.210938 408.1875 372.210938 412.742188 L 372.210938 415.019531 C 372.210938 419.117188 375.855469 422.761719 379.953125 422.761719 C 384.050781 422.761719 387.695312 419.117188 387.695312 415.019531 L 387.695312 412.742188 C 387.695312 408.1875 384.050781 405 379.953125 405 Z M 372.210938 439.609375 C 372.210938 439.609375 371.757812 439.152344 371.757812 439.609375 L 366.292969 452.359375 C 365.382812 454.183594 363.558594 455.546875 361.28125 455.546875 L 359.003906 455.546875 C 358.550781 455.546875 358.09375 455.546875 358.09375 455.09375 C 357.640625 454.636719 357.640625 454.183594 358.09375 453.726562 L 364.925781 437.789062 L 367.203125 431.414062 C 369.023438 427.769531 372.667969 425.039062 376.765625 425.039062 L 383.140625 425.039062 C 387.238281 425.039062 390.882812 427.769531 392.703125 431.414062 L 394.980469 437.789062 L 401.8125 453.726562 C 402.269531 454.183594 402.269531 454.636719 401.8125 455.09375 C 401.8125 455.546875 401.355469 455.546875 400.902344 455.546875 L 398.625 455.546875 C 396.347656 455.546875 394.527344 454.183594 393.613281 452.359375 L 388.152344 439.609375 C 388.152344 439.152344 387.695312 439.609375 387.695312 439.609375 L 389.972656 455.546875 L 392.703125 484.691406 C 392.703125 485.148438 392.25 485.148438 392.25 485.605469 C 391.792969 485.605469 391.792969 486.058594 391.339844 486.058594 L 389.515625 486.058594 C 386.785156 486.058594 384.507812 484.238281 384.507812 481.503906 L 380.410156 456.914062 C 379.953125 456.914062 379.953125 456.914062 379.5 456.914062 L 375.398438 481.503906 C 375.398438 484.238281 373.121094 486.058594 370.390625 486.058594 L 368.570312 486.058594 C 368.113281 486.058594 368.113281 485.605469 367.65625 485.605469 C 367.65625 485.148438 367.203125 485.148438 367.203125 484.691406 L 369.933594 455.546875 Z M 430.046875 405 C 425.949219 405 422.304688 408.1875 422.304688 412.742188 L 422.304688 415.019531 C 422.304688 419.117188 425.949219 422.761719 430.046875 422.761719 C 434.144531 422.761719 437.789062 419.117188 437.789062 415.019531 L 437.789062 412.742188 C 437.789062 408.1875 434.144531 405 430.046875 405 Z M 422.304688 439.609375 C 422.304688 439.609375 421.847656 439.152344 421.847656 439.609375 L 416.382812 452.359375 C 415.472656 454.183594 413.652344 455.546875 411.375 455.546875 L 409.097656 455.546875 C 408.644531 455.546875 408.1875 455.546875 408.1875 455.09375 C 407.730469 454.636719 407.730469 454.183594 408.1875 453.726562 L 415.019531 437.789062 L 417.296875 431.414062 C 419.117188 427.769531 422.761719 425.039062 426.859375 425.039062 L 433.234375 425.039062 C 437.332031 425.039062 440.976562 427.769531 442.796875 431.414062 L 445.074219 437.789062 L 451.90625 453.726562 C 452.359375 454.183594 452.359375 454.636719 451.90625 455.09375 C 451.90625 455.546875 451.449219 455.546875 450.996094 455.546875 L 448.71875 455.546875 C 446.441406 455.546875 444.617188 454.183594 443.707031 452.359375 L 438.242188 439.609375 C 438.242188 439.152344 437.789062 439.609375 437.789062 439.609375 L 440.066406 455.546875 L 442.796875 484.691406 C 442.796875 485.148438 442.34375 485.148438 442.34375 485.605469 C 441.886719 485.605469 441.886719 486.058594 441.429688 486.058594 L 439.609375 486.058594 C 436.878906 486.058594 434.601562 484.238281 434.601562 481.503906 L 430.5 456.914062 C 430.046875 456.914062 430.046875 456.914062 429.589844 456.914062 L 425.492188 481.503906 C 425.492188 484.238281 423.214844 486.058594 420.484375 486.058594 L 418.660156 486.058594 C 418.207031 486.058594 418.207031 485.605469 417.75 485.605469 C 417.75 485.148438 417.296875 485.148438 417.296875 484.691406 L 420.027344 455.546875 Z M 480.140625 405 C 476.039062 405 472.398438 408.1875 472.398438 412.742188 L 472.398438 415.019531 C 472.398438 419.117188 476.039062 422.761719 480.140625 422.761719 C 484.238281 422.761719 487.882812 419.117188 487.882812 415.019531 L 487.882812 412.742188 C 487.882812 408.1875 484.238281 405 480.140625 405 Z M 472.398438 439.609375 C 472.398438 439.609375 471.941406 439.152344 471.941406 439.609375 L 466.476562 452.359375 C 465.566406 454.183594 463.746094 455.546875 461.46875 455.546875 L 459.191406 455.546875 C 458.734375 455.546875 458.28125 455.546875 458.28125 455.09375 C 457.824219 454.636719 457.824219 454.183594 458.28125 453.726562 L 465.113281 437.789062 L 467.386719 431.414062 C 469.210938 427.769531 472.851562 425.039062 476.953125 425.039062 L 483.328125 425.039062 C 487.425781 425.039062 491.070312 427.769531 492.890625 431.414062 L 495.167969 437.789062 L 501.996094 453.726562 C 502.453125 454.183594 502.453125 454.636719 501.996094 455.09375 C 501.996094 455.546875 501.542969 455.546875 501.085938 455.546875 L 498.808594 455.546875 C 496.535156 455.546875 494.710938 454.183594 493.800781 452.359375 L 488.335938 439.609375 C 488.335938 439.152344 487.882812 439.609375 487.882812 439.609375 L 490.15625 455.546875 L 492.890625 484.691406 C 492.890625 485.148438 492.433594 485.148438 492.433594 485.605469 C 491.980469 485.605469 491.980469 486.058594 491.523438 486.058594 L 489.703125 486.058594 C 486.96875 486.058594 484.691406 484.238281 484.691406 481.503906 L 480.59375 456.914062 C 480.140625 456.914062 480.140625 456.914062 479.683594 456.914062 L 475.585938 481.503906 C 475.585938 484.238281 473.308594 486.058594 470.574219 486.058594 L 468.753906 486.058594 C 468.300781 486.058594 468.300781 485.605469 467.84375 485.605469 C 467.84375 485.148438 467.386719 485.148438 467.386719 484.691406 L 470.121094 455.546875 Z M 530.230469 405 C 526.132812 405 522.492188 408.1875 522.492188 412.742188 L 522.492188 415.019531 C 522.492188 419.117188 526.132812 422.761719 530.230469 422.761719 C 534.332031 422.761719 537.972656 419.117188 537.972656 415.019531 L 537.972656 412.742188 C 537.972656 408.1875 534.332031 405 530.230469 405 Z M 522.492188 439.609375 C 522.492188 439.609375 522.035156 439.152344 522.035156 439.609375 L 516.570312 452.359375 C 515.660156 454.183594 513.839844 455.546875 511.5625 455.546875 L 509.285156 455.546875 C 508.828125 455.546875 508.375 455.546875 508.375 455.09375 C 507.917969 454.636719 507.917969 454.183594 508.375 453.726562 L 515.203125 437.789062 L 517.480469 431.414062 C 519.304688 427.769531 522.945312 425.039062 527.042969 425.039062 L 533.417969 425.039062 C 537.519531 425.039062 541.160156 427.769531 542.984375 431.414062 L 545.261719 437.789062 L 552.089844 453.726562 C 552.546875 454.183594 552.546875 454.636719 552.089844 455.09375 C 552.089844 455.546875 551.636719 455.546875 551.179688 455.546875 L 548.902344 455.546875 C 546.625 455.546875 544.804688 454.183594 543.894531 452.359375 L 538.429688 439.609375 C 538.429688 439.152344 537.972656 439.609375 537.972656 439.609375 L 540.25 455.546875 L 542.984375 484.691406 C 542.984375 485.148438 542.527344 485.148438 542.527344 485.605469 C 542.070312 485.605469 542.070312 486.058594 541.617188 486.058594 L 539.796875 486.058594 C 537.0625 486.058594 534.785156 484.238281 534.785156 481.503906 L 530.6875 456.914062 C 530.230469 456.914062 530.230469 456.914062 529.777344 456.914062 L 525.679688 481.503906 C 525.679688 484.238281 523.402344 486.058594 520.667969 486.058594 L 518.847656 486.058594 C 518.390625 486.058594 518.390625 485.605469 517.9375 485.605469 C 517.9375 485.148438 517.480469 485.148438 517.480469 484.691406 L 520.214844 455.546875 Z M 580.324219 405 C 576.226562 405 572.582031 408.1875 572.582031 412.742188 L 572.582031 415.019531 C 572.582031 419.117188 576.226562 422.761719 580.324219 422.761719 C 584.421875 422.761719 588.066406 419.117188 588.066406 415.019531 L 588.066406 412.742188 C 588.066406 408.1875 584.421875 405 580.324219 405 Z M 572.582031 439.609375 C 572.582031 439.609375 572.128906 439.152344 572.128906 439.609375 L 566.664062 452.359375 C 565.753906 454.183594 563.929688 455.546875 561.652344 455.546875 L 559.378906 455.546875 C 558.921875 455.546875 558.464844 455.546875 558.464844 455.09375 C 558.011719 454.636719 558.011719 454.183594 558.464844 453.726562 L 565.296875 437.789062 L 567.574219 431.414062 C 569.394531 427.769531 573.039062 425.039062 577.136719 425.039062 L 583.511719 425.039062 C 587.609375 425.039062 591.253906 427.769531 593.074219 431.414062 L 595.351562 437.789062 L 602.183594 453.726562 C 602.640625 454.183594 602.640625 454.636719 602.183594 455.09375 C 602.183594 455.546875 601.726562 455.546875 601.273438 455.546875 L 598.996094 455.546875 C 596.71875 455.546875 594.898438 454.183594 593.988281 452.359375 L 588.523438 439.609375 C 588.523438 439.152344 588.066406 439.609375 588.066406 439.609375 L 590.34375 455.546875 L 593.074219 484.691406 C 593.074219 485.148438 592.621094 485.148438 592.621094 485.605469 C 592.164062 485.605469 592.164062 486.058594 591.710938 486.058594 L 589.886719 486.058594 C 587.15625 486.058594 584.878906 484.238281 584.878906 481.503906 L 580.78125 456.914062 C 580.324219 456.914062 580.324219 456.914062 579.871094 456.914062 L 575.769531 481.503906 C 575.769531 484.238281 573.496094 486.058594 570.761719 486.058594 L 568.941406 486.058594 C 568.484375 486.058594 568.484375 485.605469 568.03125 485.605469 C 568.03125 485.148438 567.574219 485.148438 567.574219 484.691406 L 570.304688 455.546875 Z M 630.417969 405 C 626.320312 405 622.675781 408.1875 622.675781 412.742188 L 622.675781 415.019531 C 622.675781 419.117188 626.320312 422.761719 630.417969 422.761719 C 634.515625 422.761719 638.160156 419.117188 638.160156 415.019531 L 638.160156 412.742188 C 638.160156 408.1875 634.515625 405 630.417969 405 Z M 622.675781 439.609375 C 622.675781 439.609375 622.222656 439.152344 622.222656 439.609375 L 616.757812 452.359375 C 615.84375 454.183594 614.023438 455.546875 611.746094 455.546875 L 609.46875 455.546875 C 609.015625 455.546875 608.558594 455.546875 608.558594 455.09375 C 608.105469 454.636719 608.105469 454.183594 608.558594 453.726562 L 615.390625 437.789062 L 617.667969 431.414062 C 619.488281 427.769531 623.132812 425.039062 627.230469 425.039062 L 633.605469 425.039062 C 637.703125 425.039062 641.347656 427.769531 643.167969 431.414062 L 645.445312 437.789062 L 652.277344 453.726562 C 652.730469 454.183594 652.730469 454.636719 652.277344 455.09375 C 652.277344 455.546875 651.820312 455.546875 651.367188 455.546875 L 649.089844 455.546875 C 646.8125 455.546875 644.992188 454.183594 644.078125 452.359375 L 638.613281 439.609375 C 638.613281 439.152344 638.160156 439.609375 638.160156 439.609375 L 640.4375 455.546875 L 643.167969 484.691406 C 643.167969 485.148438 642.714844 485.148438 642.714844 485.605469 C 642.257812 485.605469 642.257812 486.058594 641.800781 486.058594 L 639.980469 486.058594 C 637.25 486.058594 634.972656 484.238281 634.972656 481.503906 L 630.875 456.914062 C 630.417969 456.914062 630.417969 456.914062 629.960938 456.914062 L 625.863281 481.503906 C 625.863281 484.238281 623.585938 486.058594 620.855469 486.058594 L 619.03125 486.058594 C 618.578125 486.058594 618.578125 485.605469 618.121094 485.605469 C 618.121094 485.148438 617.667969 485.148438 617.667969 484.691406 L 620.398438 455.546875 Z M 622.675781 439.609375 " clip-rule="nonzero"/></clipPath></defs><g clip-path="url(#493cc760c8)"><g clip-path="url(#865b8f3284)"><path fill="#b2784a" d="M 156.8125 405 L 653.3125 405 L 653.3125 485.957031 L 156.8125 485.957031 Z M 156.8125 405 " fill-opacity="1" fill-rule="nonzero"/></g></g><g clip-path="url(#15396f2924)"><g clip-path="url(#5eae030685)"><path fill="#ebdacc" d="M 156.8125 405 L 653.3125 405 L 653.3125 485.957031 L 156.8125 485.957031 Z M 156.8125 405 " fill-opacity="1" fill-rule="nonzero"/></g></g></svg>