<svg xmlns="http://www.w3.org/2000/svg" xmlns:xlink="http://www.w3.org/1999/xlink" width="1080" zoomAndPan="magnify" viewBox="0 0 810 809.999993" height="1080" preserveAspectRatio="xMidYMid meet" version="1.0"><defs><clipPath id="4d15ec74cf"><path d="M 243 281.878906 L 396 281.878906 L 396 527.878906 L 243 527.878906 Z M 243 281.878906 " clip-rule="nonzero"/></clipPath><clipPath id="2118adf357"><path d="M 410 281.878906 L 567 281.878906 L 567 527.878906 L 410 527.878906 Z M 410 281.878906 " clip-rule="nonzero"/></clipPath></defs><g clip-path="url(#4d15ec74cf)"><path fill="#000000" d="M 326.84375 387.269531 C 311.519531 387.269531 297.414062 392.375 286.015625 400.878906 C 287.136719 365.378906 314.582031 329.867188 368.726562 294.347656 L 360.691406 281.878906 C 282.234375 330.625 243.003906 384.121094 243.003906 442.363281 C 243.003906 469.109375 250.28125 490.066406 264.847656 505.207031 C 279.402344 520.378906 297.835938 527.941406 320.125 527.941406 C 342.425781 527.941406 360.394531 521.859375 374.070312 509.667969 C 387.734375 497.496094 394.578125 482.773438 394.578125 465.546875 C 394.578125 465.351562 394.542969 465.207031 394.542969 465 C 394.960938 461.945312 395.253906 458.859375 395.253906 455.667969 C 395.253906 417.902344 364.613281 387.269531 326.84375 387.269531 Z M 326.84375 387.269531 " fill-opacity="1" fill-rule="nonzero"/></g><g clip-path="url(#2118adf357)"><path fill="#000000" d="M 548.03125 502.894531 C 548.914062 501.871094 549.988281 500.894531 550.800781 499.828125 C 560.875 487.90625 566.996094 472.519531 566.996094 455.667969 C 566.996094 417.90625 536.363281 387.261719 498.589844 387.261719 C 481.289062 387.261719 465.542969 393.734375 453.488281 404.335938 C 453.488281 403.914062 453.421875 403.558594 453.421875 403.125 C 453.421875 366.871094 481.054688 330.601562 536.34375 294.339844 L 528.316406 281.878906 C 449.851562 330.625 410.617188 384.121094 410.617188 442.375 C 410.617188 469.121094 417.894531 490.078125 432.46875 505.21875 C 447.023438 520.386719 465.449219 527.960938 487.738281 527.960938 C 510.027344 527.960938 528.015625 521.867188 541.683594 509.671875 C 543.617188 507.972656 545.117188 506.058594 546.773438 504.234375 C 547.210938 503.800781 547.601562 503.347656 548.03125 502.894531 Z M 548.03125 502.894531 " fill-opacity="1" fill-rule="nonzero"/></g></svg>